<svg width="307" height="77" viewBox="0 0 307 77" fill="none" xmlns="http://www.w3.org/2000/svg">
<path d="M94.0914 62.5199V73.414H90.5449V62.5199H86.1656V59.7598H98.4706V62.5199H94.0914Z" fill="white"/>
<path d="M108.648 73.4217V59.7598H119.496V62.5276H112.164V65.149H118.493V67.9091H112.164V70.6538H119.519V73.4217H108.648Z" fill="white"/>
<path d="M133.342 59.7598L136.102 64.2315L138.847 59.7598H142.825L138.454 66.4597L143.211 73.414H139.21L136.087 68.7726L132.972 73.414H128.971L133.736 66.4905L129.356 59.7598H133.342Z" fill="white"/>
<path d="M153.373 73.422V59.7678H156.912V65.1493H162.663V59.7678H166.202V73.422H162.663V67.9634H156.912V73.422H153.373Z" fill="white"/>
<path d="M177.142 65.6196C177.142 64.7175 177.274 63.8848 177.528 63.1293C177.782 62.3737 178.191 61.7261 178.746 61.1787C179.301 60.6313 180.003 60.2072 180.859 59.9065C181.714 59.6059 182.748 59.4517 183.943 59.4517C185.138 59.4517 186.163 59.6059 187.019 59.9065C187.875 60.2149 188.584 60.639 189.131 61.1864C189.679 61.7338 190.087 62.3814 190.349 63.137C190.612 63.8926 190.743 64.7175 190.743 65.6119V67.5625C190.743 68.4568 190.612 69.2818 190.349 70.0296C190.087 70.7852 189.686 71.4328 189.131 71.9802C188.584 72.5276 187.882 72.9517 187.019 73.2601C186.163 73.5685 185.138 73.7149 183.943 73.7149C182.748 73.7149 181.714 73.5608 180.859 73.2601C180.003 72.9517 179.294 72.5276 178.746 71.9879C178.199 71.4482 177.79 70.7929 177.528 70.0373C177.274 69.2818 177.142 68.4568 177.142 67.5548V65.6042V65.6196ZM183.943 70.9548C184.436 70.9548 184.875 70.8854 185.276 70.7544C185.677 70.6233 186.017 70.4228 186.302 70.153C186.579 69.8908 186.795 69.5593 186.949 69.1738C187.104 68.7806 187.173 68.3334 187.173 67.8246V65.396C187.181 64.8717 187.111 64.4014 186.957 64.0082C186.811 63.6073 186.595 63.2758 186.309 63.0213C186.024 62.7592 185.685 62.5665 185.292 62.4354C184.891 62.3043 184.444 62.2349 183.95 62.2349C183.457 62.2349 183.002 62.3043 182.609 62.4354C182.208 62.5665 181.869 62.7669 181.591 63.0368C181.313 63.2989 181.098 63.6304 180.951 64.0313C180.797 64.4322 180.728 64.8871 180.728 65.4114V67.84C180.728 68.3412 180.805 68.7883 180.951 69.1738C181.098 69.5593 181.313 69.8831 181.591 70.153C181.869 70.4151 182.208 70.6156 182.609 70.7544C183.01 70.8931 183.457 70.9625 183.95 70.9625" fill="white"/>
<path d="M210.549 73.422V62.4894H205.677V69.3898C205.677 70.1222 205.584 70.7621 205.399 71.3018C205.214 71.8415 204.906 72.2964 204.466 72.6588C204.034 73.0211 203.464 73.291 202.755 73.4683C202.045 73.6456 201.174 73.7381 200.125 73.7381V70.9549C200.55 70.9549 200.896 70.9163 201.159 70.8392C201.421 70.7621 201.629 70.6465 201.775 70.4923C201.922 70.3304 202.022 70.1299 202.076 69.8832C202.13 69.6365 202.153 69.3435 202.153 69.0043V59.7678H214.111V73.422H210.557H210.549Z" fill="white"/>
<path d="M224.82 65.6196C224.82 64.7175 224.951 63.8848 225.206 63.1293C225.46 62.3737 225.869 61.7261 226.424 61.1787C226.971 60.6313 227.681 60.2072 228.536 59.9065C229.392 59.6059 230.425 59.4517 231.62 59.4517C232.815 59.4517 233.841 59.6059 234.697 59.9065C235.552 60.2149 236.262 60.639 236.809 61.1864C237.356 61.7338 237.765 62.3814 238.027 63.137C238.289 63.8926 238.42 64.7175 238.42 65.6119V67.5625C238.42 68.4568 238.289 69.2818 238.027 70.0296C237.765 70.7852 237.364 71.4328 236.809 71.9802C236.262 72.5276 235.56 72.9517 234.697 73.2601C233.841 73.5685 232.815 73.7149 231.62 73.7149C230.425 73.7149 229.392 73.5608 228.536 73.2601C227.681 72.9517 226.971 72.5276 226.424 71.9879C225.869 71.4482 225.468 70.7929 225.206 70.0373C224.951 69.2818 224.82 68.4568 224.82 67.5548V65.6042V65.6196ZM231.62 70.9548C232.114 70.9548 232.553 70.8854 232.954 70.7544C233.355 70.6233 233.694 70.4228 233.98 70.153C234.257 69.8908 234.473 69.5593 234.627 69.1738C234.781 68.7806 234.851 68.3334 234.851 67.8246V65.396C234.858 64.8717 234.789 64.4014 234.635 64.0082C234.488 63.6073 234.272 63.2758 233.987 63.0213C233.702 62.7592 233.363 62.5665 232.962 62.4354C232.561 62.3043 232.114 62.2349 231.62 62.2349C231.127 62.2349 230.672 62.3043 230.279 62.4354C229.878 62.5665 229.539 62.7669 229.261 63.0368C228.984 63.2989 228.768 63.6304 228.621 64.0313C228.467 64.4322 228.398 64.8871 228.398 65.4114V67.84C228.398 68.3412 228.475 68.7883 228.621 69.1738C228.768 69.5593 228.984 69.8831 229.261 70.153C229.539 70.4151 229.878 70.6156 230.279 70.7544C230.68 70.8931 231.127 70.9625 231.62 70.9625" fill="white"/>
<path d="M252.9 62.5199V73.414H249.361V59.7598H259.168V62.5199H252.9Z" fill="white"/>
<path d="M279.136 73.422L279.221 65.1725L279.298 64.4015H279.275L272.884 73.422H269.591V59.7678H272.884L272.806 68.1408L272.722 68.9117H272.76L279.144 59.7678H282.428V73.422H279.136Z" fill="white"/>
<path d="M303.708 73.422L303.792 65.1725L303.87 64.4015H303.846L297.455 73.422H294.163V59.7678H297.455L297.378 68.1408L297.293 68.9117H297.332L303.715 59.7678H307V73.422H303.708Z" fill="white"/>
<path d="M85.9266 48.8505H95.2325V20.0078H109.689V48.8505H119.041V12.8145H85.9266V48.8505Z" fill="white"/>
<path d="M156.202 15.6286C155.061 14.7188 153.681 14.0249 152.062 13.5392C150.435 13.0535 148.616 12.8145 146.588 12.8145H127.429V48.8505H136.735V37.8793H146.565C148.608 37.8793 150.435 37.6326 152.062 37.1469C153.681 36.6534 155.061 35.9364 156.202 34.9881C157.343 34.0398 158.214 32.8602 158.823 31.4647C159.433 30.0615 159.741 28.4501 159.741 26.6074V23.4695C159.741 21.7965 159.433 20.293 158.823 18.9747C158.214 17.6563 157.343 16.5383 156.202 15.6286ZM150.335 25.8519C150.335 26.7539 150.204 27.5095 149.942 28.1032C149.68 28.7045 149.302 29.1903 148.816 29.5603C148.323 29.9304 147.729 30.2002 147.035 30.3544C146.341 30.5164 145.562 30.5935 144.707 30.5935H136.727V20.0772H145.061C146.865 20.0772 148.199 20.4549 149.047 21.2028C149.903 21.9584 150.327 23.0917 150.327 24.6106V25.8442L150.335 25.8519Z" fill="white"/>
<path d="M194.667 16.5921C193.217 15.1504 191.359 14.0247 189.1 13.2229C186.834 12.4134 184.127 12.0125 180.982 12.0125C177.836 12.0125 175.099 12.4134 172.84 13.2075C170.573 14.0093 168.715 15.1272 167.258 16.569C165.801 18.0107 164.737 19.7223 164.051 21.7115C163.372 23.7006 163.033 25.8902 163.033 28.2803V33.4305C163.033 35.8052 163.372 37.9871 164.051 39.9839C164.729 41.9808 165.801 43.6924 167.258 45.1264C168.715 46.5604 170.573 47.6784 172.84 48.4879C175.099 49.2975 177.821 49.6984 180.982 49.6984C184.143 49.6984 186.841 49.2975 189.1 48.4879C191.359 47.6784 193.217 46.5527 194.667 45.1033C196.116 43.6538 197.188 41.9422 197.874 39.9531C198.56 37.9639 198.907 35.7974 198.907 33.4382V28.288C198.907 25.9134 198.56 23.7315 197.874 21.75C197.188 19.7609 196.116 18.0493 194.667 16.6075M189.501 34.1013C189.501 35.4428 189.301 36.6301 188.908 37.6632C188.514 38.6887 187.944 39.5522 187.196 40.2538C186.448 40.9477 185.554 41.4796 184.505 41.8343C183.449 42.1889 182.277 42.3663 180.982 42.3663C179.687 42.3663 178.484 42.1812 177.435 41.8189C176.379 41.4565 175.485 40.9245 174.752 40.2306C174.02 39.5367 173.449 38.6732 173.056 37.6555C172.663 36.6378 172.462 35.4582 172.462 34.1321V27.7175C172.462 26.3374 172.663 25.127 173.056 24.0707C173.449 23.0222 174.02 22.1432 174.752 21.4494C175.485 20.7555 176.379 20.2235 177.435 19.8688C178.484 19.5142 179.671 19.3368 180.982 19.3368C182.292 19.3368 183.48 19.5142 184.528 19.8611C185.577 20.2081 186.479 20.7246 187.219 21.4185C187.959 22.1124 188.53 22.9759 188.931 24.0322C189.324 25.0884 189.524 26.3066 189.524 27.7021L189.501 34.109V34.1013Z" fill="white"/>
<path d="M200.781 20.1003H212.346V48.8505H221.698V20.1003H233.263V12.8145H200.781V20.1003Z" fill="white"/>
<path d="M246.986 34.325H263.701V27.0392H246.986V20.1003H266.33V12.8145H237.703V48.8505H266.4V41.5646H246.986V34.325Z" fill="white"/>
<path d="M298.334 12.8376L281.48 36.9619H281.388L281.596 34.9188L281.812 12.8376H273.123V48.8505H281.812L298.666 25.0655H298.735L298.527 27.0855L298.311 48.8505H307V12.8376H298.334Z" fill="white"/>
<path d="M298.804 0.671387H281.056V7.68738H298.804V0.671387Z" fill="white"/>
<path d="M70.0597 6.77759C70.6303 6.77759 71.0851 7.23247 71.0851 7.78758V75.3185C71.0851 75.8736 70.6225 76.3285 70.0597 76.3285H1.02541C0.454883 76.3285 0 75.8736 0 75.3185V7.78758C0 7.23247 0.462593 6.77759 1.02541 6.77759H70.0597ZM15.4737 27.1779C16.9617 25.9598 19.1051 25.343 21.9115 25.343H25.3964C24.7102 33.7082 23.7079 39.799 22.3741 43.6308C21.0403 47.4627 19.0203 51.148 16.3218 54.6945C14.4792 57.1386 13.554 59.0583 13.554 60.4615C13.554 61.8647 14.0937 63.1214 15.1731 64.0235C16.2524 64.9255 17.5785 65.3804 19.1436 65.3804C21.233 65.3804 22.8829 64.5632 24.0934 62.921C25.3116 61.2788 26.4218 57.6551 27.4241 52.0346C28.4341 46.4141 29.2976 37.5169 30.0146 25.343H40.8855L39.5055 39.7913C38.7884 47.347 38.4261 52.3045 38.4261 54.6406C38.4261 58.1871 39.1816 60.6466 41.1708 62.6666C43.1599 64.6943 44.486 65.3804 47.4929 65.3804C53.9538 65.3804 58.6877 60.7314 59.8133 51.4332H57.9629C57.3538 55.4809 54.4626 57.5009 51.1859 57.5009C49.6131 57.5009 48.8421 56.7685 48.0943 55.9667C47.3464 55.1648 46.4289 52.1117 46.4289 47.4627C46.4289 45.5275 46.5292 43.2299 46.7373 40.5854L47.7627 25.3353H59.6591V18.0109H26.9383C22.6979 18.0109 19.745 18.3578 18.0951 19.0594C16.4375 19.761 14.8184 21.2722 13.2456 23.5774C11.6728 25.8827 10.3929 28.8279 9.39835 32.4052H11.2487C12.5825 30.1308 13.9934 28.3807 15.4814 27.1625" fill="white"/>
</svg>
